<mxfile host="Electron" agent="Mozilla/5.0 (Windows NT 10.0; Win64; x64) AppleWebKit/537.36 (KHTML, like Gecko) draw.io/24.7.17 Chrome/128.0.6613.36 Electron/32.0.1 Safari/537.36" version="24.7.17">
  <diagram name="Страница — 1" id="izir7FpTM5-nNE1eYJDO">
    <mxGraphModel dx="1195" dy="697" grid="0" gridSize="10" guides="1" tooltips="1" connect="1" arrows="1" fold="1" page="1" pageScale="1" pageWidth="827" pageHeight="1169" math="0" shadow="0">
      <root>
        <mxCell id="0" />
        <mxCell id="1" parent="0" />
        <mxCell id="pYHRvO8yDs57ZYNteSiN-8" value="" style="rounded=0;whiteSpace=wrap;html=1;fillColor=#fff2cc;strokeColor=#d6b656;" vertex="1" parent="1">
          <mxGeometry x="390" y="40" width="280" height="90" as="geometry" />
        </mxCell>
        <mxCell id="pYHRvO8yDs57ZYNteSiN-32" style="edgeStyle=orthogonalEdgeStyle;rounded=0;orthogonalLoop=1;jettySize=auto;html=1;entryX=1;entryY=0.167;entryDx=0;entryDy=0;strokeColor=#3333FF;entryPerimeter=0;" edge="1" parent="1" source="pYHRvO8yDs57ZYNteSiN-13" target="pYHRvO8yDs57ZYNteSiN-18">
          <mxGeometry relative="1" as="geometry">
            <Array as="points">
              <mxPoint x="630" y="370" />
            </Array>
          </mxGeometry>
        </mxCell>
        <mxCell id="pYHRvO8yDs57ZYNteSiN-1" value="" style="rounded=0;whiteSpace=wrap;html=1;fillColor=#dae8fc;strokeColor=#6c8ebf;" vertex="1" parent="1">
          <mxGeometry x="30" y="40" width="240" height="380" as="geometry" />
        </mxCell>
        <mxCell id="pYHRvO8yDs57ZYNteSiN-9" value="" style="rounded=0;whiteSpace=wrap;html=1;dashed=1;" vertex="1" parent="1">
          <mxGeometry x="50" y="160" width="200" height="240" as="geometry" />
        </mxCell>
        <mxCell id="pYHRvO8yDs57ZYNteSiN-4" value="&amp;nbsp;МФ: H&lt;span style=&quot;background-color: initial;&quot;&gt;ost app&lt;/span&gt;" style="text;html=1;align=left;verticalAlign=middle;resizable=0;points=[];autosize=1;strokeColor=none;fillColor=none;" vertex="1" parent="1">
          <mxGeometry x="30" y="40" width="100" height="30" as="geometry" />
        </mxCell>
        <mxCell id="pYHRvO8yDs57ZYNteSiN-5" value="МФ: Shared-library" style="text;html=1;align=left;verticalAlign=middle;resizable=0;points=[];autosize=1;strokeColor=none;fillColor=none;" vertex="1" parent="1">
          <mxGeometry x="390" y="40" width="119" height="26" as="geometry" />
        </mxCell>
        <mxCell id="pYHRvO8yDs57ZYNteSiN-10" value="&amp;nbsp;Компонент: App&lt;div&gt;&amp;nbsp;AuthContext.Provider&lt;/div&gt;" style="text;html=1;align=left;verticalAlign=middle;resizable=0;points=[];autosize=1;strokeColor=none;fillColor=none;" vertex="1" parent="1">
          <mxGeometry x="50" y="160" width="140" height="40" as="geometry" />
        </mxCell>
        <mxCell id="pYHRvO8yDs57ZYNteSiN-25" style="edgeStyle=orthogonalEdgeStyle;rounded=0;orthogonalLoop=1;jettySize=auto;html=1;entryX=1;entryY=0.5;entryDx=0;entryDy=0;strokeColor=#3333FF;" edge="1" parent="1" source="pYHRvO8yDs57ZYNteSiN-12" target="pYHRvO8yDs57ZYNteSiN-20">
          <mxGeometry relative="1" as="geometry" />
        </mxCell>
        <mxCell id="pYHRvO8yDs57ZYNteSiN-12" value="AuthContext" style="rounded=0;whiteSpace=wrap;html=1;strokeColor=#3333FF;dashed=1;" vertex="1" parent="1">
          <mxGeometry x="410" y="70" width="100" height="40" as="geometry" />
        </mxCell>
        <mxCell id="pYHRvO8yDs57ZYNteSiN-31" style="edgeStyle=orthogonalEdgeStyle;rounded=0;orthogonalLoop=1;jettySize=auto;html=1;endArrow=classic;endFill=1;startArrow=classic;startFill=1;strokeColor=#3333FF;" edge="1" parent="1" source="pYHRvO8yDs57ZYNteSiN-13">
          <mxGeometry relative="1" as="geometry">
            <mxPoint x="530" y="270" as="targetPoint" />
            <Array as="points">
              <mxPoint x="600" y="270" />
              <mxPoint x="530" y="270" />
            </Array>
          </mxGeometry>
        </mxCell>
        <mxCell id="pYHRvO8yDs57ZYNteSiN-39" value="&lt;font style=&quot;font-size: 10px;&quot;&gt;Пользовательские&lt;/font&gt;&lt;div style=&quot;font-size: 10px;&quot;&gt;&lt;font style=&quot;font-size: 10px;&quot;&gt;данные&lt;/font&gt;&lt;/div&gt;" style="edgeLabel;html=1;align=center;verticalAlign=middle;resizable=0;points=[];" vertex="1" connectable="0" parent="pYHRvO8yDs57ZYNteSiN-31">
          <mxGeometry x="-0.4379" y="-1" relative="1" as="geometry">
            <mxPoint as="offset" />
          </mxGeometry>
        </mxCell>
        <mxCell id="pYHRvO8yDs57ZYNteSiN-13" value="UserContext" style="rounded=0;whiteSpace=wrap;html=1;strokeColor=#3333FF;dashed=1;" vertex="1" parent="1">
          <mxGeometry x="550" y="70" width="100" height="40" as="geometry" />
        </mxCell>
        <mxCell id="pYHRvO8yDs57ZYNteSiN-56" style="edgeStyle=orthogonalEdgeStyle;rounded=0;orthogonalLoop=1;jettySize=auto;html=1;entryX=0.5;entryY=0;entryDx=0;entryDy=0;strokeColor=#FF33FF;jumpStyle=arc;" edge="1" parent="1" source="pYHRvO8yDs57ZYNteSiN-14" target="pYHRvO8yDs57ZYNteSiN-16">
          <mxGeometry relative="1" as="geometry" />
        </mxCell>
        <mxCell id="pYHRvO8yDs57ZYNteSiN-63" value="&lt;font style=&quot;font-size: 10px;&quot;&gt;JWT&lt;/font&gt;" style="edgeLabel;html=1;align=center;verticalAlign=middle;resizable=0;points=[];" vertex="1" connectable="0" parent="pYHRvO8yDs57ZYNteSiN-56">
          <mxGeometry x="-0.22" relative="1" as="geometry">
            <mxPoint y="2" as="offset" />
          </mxGeometry>
        </mxCell>
        <mxCell id="pYHRvO8yDs57ZYNteSiN-14" value="" style="rounded=0;whiteSpace=wrap;html=1;fillColor=#dae8fc;strokeColor=#6c8ebf;" vertex="1" parent="1">
          <mxGeometry x="390" y="160" width="140" height="60" as="geometry" />
        </mxCell>
        <mxCell id="pYHRvO8yDs57ZYNteSiN-15" value="&amp;nbsp;МФ: Auth app" style="text;html=1;align=left;verticalAlign=middle;resizable=0;points=[];autosize=1;strokeColor=none;fillColor=none;" vertex="1" parent="1">
          <mxGeometry x="390" y="162" width="95" height="26" as="geometry" />
        </mxCell>
        <mxCell id="pYHRvO8yDs57ZYNteSiN-47" style="edgeStyle=orthogonalEdgeStyle;rounded=0;orthogonalLoop=1;jettySize=auto;html=1;entryX=0.5;entryY=0;entryDx=0;entryDy=0;strokeColor=#FF9933;" edge="1" parent="1" source="pYHRvO8yDs57ZYNteSiN-16" target="pYHRvO8yDs57ZYNteSiN-18">
          <mxGeometry relative="1" as="geometry" />
        </mxCell>
        <mxCell id="pYHRvO8yDs57ZYNteSiN-48" value="&lt;span style=&quot;font-size: 10px;&quot;&gt;Pub/Sub: add new card event&lt;/span&gt;" style="edgeLabel;html=1;align=center;verticalAlign=middle;resizable=0;points=[];" vertex="1" connectable="0" parent="pYHRvO8yDs57ZYNteSiN-47">
          <mxGeometry x="-0.0806" relative="1" as="geometry">
            <mxPoint as="offset" />
          </mxGeometry>
        </mxCell>
        <mxCell id="pYHRvO8yDs57ZYNteSiN-16" value="" style="rounded=0;whiteSpace=wrap;html=1;fillColor=#dae8fc;strokeColor=#6c8ebf;" vertex="1" parent="1">
          <mxGeometry x="390" y="260" width="140" height="60" as="geometry" />
        </mxCell>
        <mxCell id="pYHRvO8yDs57ZYNteSiN-17" value="&amp;nbsp;МФ: User app" style="text;html=1;align=left;verticalAlign=middle;resizable=0;points=[];autosize=1;strokeColor=none;fillColor=none;" vertex="1" parent="1">
          <mxGeometry x="390" y="262" width="96" height="26" as="geometry" />
        </mxCell>
        <mxCell id="pYHRvO8yDs57ZYNteSiN-18" value="" style="rounded=0;whiteSpace=wrap;html=1;fillColor=#dae8fc;strokeColor=#6c8ebf;" vertex="1" parent="1">
          <mxGeometry x="390" y="360" width="140" height="60" as="geometry" />
        </mxCell>
        <mxCell id="pYHRvO8yDs57ZYNteSiN-19" value="&amp;nbsp;МФ: Card app" style="text;html=1;align=left;verticalAlign=middle;resizable=0;points=[];autosize=1;strokeColor=none;fillColor=none;" vertex="1" parent="1">
          <mxGeometry x="390" y="362" width="96" height="26" as="geometry" />
        </mxCell>
        <mxCell id="pYHRvO8yDs57ZYNteSiN-20" value="" style="rounded=0;whiteSpace=wrap;html=1;dashed=1;" vertex="1" parent="1">
          <mxGeometry x="50" y="80" width="200" height="50" as="geometry" />
        </mxCell>
        <mxCell id="pYHRvO8yDs57ZYNteSiN-21" value="&amp;nbsp;Компонент: Header" style="text;html=1;align=left;verticalAlign=middle;resizable=0;points=[];autosize=1;strokeColor=none;fillColor=none;" vertex="1" parent="1">
          <mxGeometry x="50" y="80" width="130" height="30" as="geometry" />
        </mxCell>
        <mxCell id="pYHRvO8yDs57ZYNteSiN-22" value="" style="rounded=0;whiteSpace=wrap;html=1;dashed=1;" vertex="1" parent="1">
          <mxGeometry x="70" y="220" width="160" height="160" as="geometry" />
        </mxCell>
        <mxCell id="pYHRvO8yDs57ZYNteSiN-23" value="&amp;nbsp;BrowserRouter&lt;div&gt;&lt;span style=&quot;text-align: center; text-wrap: wrap;&quot;&gt;&amp;nbsp;UserContext.Provider&lt;/span&gt;&lt;br&gt;&lt;/div&gt;" style="text;html=1;align=left;verticalAlign=middle;resizable=0;points=[];autosize=1;strokeColor=none;fillColor=none;" vertex="1" parent="1">
          <mxGeometry x="70" y="220" width="136" height="41" as="geometry" />
        </mxCell>
        <mxCell id="pYHRvO8yDs57ZYNteSiN-24" style="edgeStyle=orthogonalEdgeStyle;rounded=0;orthogonalLoop=1;jettySize=auto;html=1;startArrow=classic;startFill=1;strokeColor=#3333FF;" edge="1" parent="1" source="pYHRvO8yDs57ZYNteSiN-12">
          <mxGeometry relative="1" as="geometry">
            <mxPoint x="251" y="170" as="targetPoint" />
            <Array as="points">
              <mxPoint x="330" y="90" />
              <mxPoint x="330" y="170" />
              <mxPoint x="251" y="170" />
            </Array>
          </mxGeometry>
        </mxCell>
        <mxCell id="pYHRvO8yDs57ZYNteSiN-40" value="Флаг, email&lt;div&gt;авторизации&lt;/div&gt;" style="edgeLabel;html=1;align=center;verticalAlign=middle;resizable=0;points=[];" vertex="1" connectable="0" parent="pYHRvO8yDs57ZYNteSiN-24">
          <mxGeometry x="-0.0195" relative="1" as="geometry">
            <mxPoint y="-13" as="offset" />
          </mxGeometry>
        </mxCell>
        <mxCell id="pYHRvO8yDs57ZYNteSiN-28" style="edgeStyle=orthogonalEdgeStyle;rounded=0;orthogonalLoop=1;jettySize=auto;html=1;" edge="1" parent="1">
          <mxGeometry relative="1" as="geometry">
            <mxPoint x="390" y="200" as="sourcePoint" />
            <mxPoint x="250" y="200" as="targetPoint" />
          </mxGeometry>
        </mxCell>
        <mxCell id="pYHRvO8yDs57ZYNteSiN-42" value="&amp;nbsp;Компоненты&amp;nbsp;" style="edgeLabel;html=1;align=center;verticalAlign=middle;resizable=0;points=[];" vertex="1" connectable="0" parent="pYHRvO8yDs57ZYNteSiN-28">
          <mxGeometry relative="1" as="geometry">
            <mxPoint as="offset" />
          </mxGeometry>
        </mxCell>
        <mxCell id="pYHRvO8yDs57ZYNteSiN-30" style="edgeStyle=orthogonalEdgeStyle;rounded=0;orthogonalLoop=1;jettySize=auto;html=1;startArrow=classic;startFill=1;strokeColor=#3333FF;entryX=0.499;entryY=0.028;entryDx=0;entryDy=0;entryPerimeter=0;" edge="1" parent="1" source="pYHRvO8yDs57ZYNteSiN-12" target="pYHRvO8yDs57ZYNteSiN-14">
          <mxGeometry relative="1" as="geometry">
            <mxPoint x="460" y="140" as="targetPoint" />
            <Array as="points" />
          </mxGeometry>
        </mxCell>
        <mxCell id="pYHRvO8yDs57ZYNteSiN-33" style="edgeStyle=orthogonalEdgeStyle;rounded=0;orthogonalLoop=1;jettySize=auto;html=1;entryX=1;entryY=0.438;entryDx=0;entryDy=0;entryPerimeter=0;" edge="1" parent="1" source="pYHRvO8yDs57ZYNteSiN-16" target="pYHRvO8yDs57ZYNteSiN-22">
          <mxGeometry relative="1" as="geometry" />
        </mxCell>
        <mxCell id="pYHRvO8yDs57ZYNteSiN-45" value="&amp;nbsp;Компоненты&amp;nbsp;" style="edgeLabel;html=1;align=center;verticalAlign=middle;resizable=0;points=[];" vertex="1" connectable="0" parent="pYHRvO8yDs57ZYNteSiN-33">
          <mxGeometry x="-0.063" relative="1" as="geometry">
            <mxPoint x="5" as="offset" />
          </mxGeometry>
        </mxCell>
        <mxCell id="pYHRvO8yDs57ZYNteSiN-34" style="edgeStyle=orthogonalEdgeStyle;rounded=0;orthogonalLoop=1;jettySize=auto;html=1;entryX=1;entryY=0.622;entryDx=0;entryDy=0;entryPerimeter=0;" edge="1" parent="1" source="pYHRvO8yDs57ZYNteSiN-18" target="pYHRvO8yDs57ZYNteSiN-22">
          <mxGeometry relative="1" as="geometry" />
        </mxCell>
        <mxCell id="pYHRvO8yDs57ZYNteSiN-46" value="&amp;nbsp;Компоненты&amp;nbsp;" style="edgeLabel;html=1;align=center;verticalAlign=middle;resizable=0;points=[];" vertex="1" connectable="0" parent="pYHRvO8yDs57ZYNteSiN-34">
          <mxGeometry x="-0.4649" y="1" relative="1" as="geometry">
            <mxPoint x="-8" as="offset" />
          </mxGeometry>
        </mxCell>
        <mxCell id="pYHRvO8yDs57ZYNteSiN-52" style="edgeStyle=orthogonalEdgeStyle;rounded=0;orthogonalLoop=1;jettySize=auto;html=1;entryX=1;entryY=0.5;entryDx=0;entryDy=0;strokeColor=#67AB9F;jumpStyle=arc;" edge="1" parent="1" source="pYHRvO8yDs57ZYNteSiN-49" target="pYHRvO8yDs57ZYNteSiN-16">
          <mxGeometry relative="1" as="geometry" />
        </mxCell>
        <mxCell id="pYHRvO8yDs57ZYNteSiN-49" value="&lt;span style=&quot;text-align: left; text-wrap: nowrap;&quot;&gt;МФ: UI-kit&lt;/span&gt;" style="rounded=0;whiteSpace=wrap;html=1;strokeColor=#82b366;fillColor=#d5e8d4;" vertex="1" parent="1">
          <mxGeometry x="710" y="160" width="80" height="260" as="geometry" />
        </mxCell>
        <mxCell id="pYHRvO8yDs57ZYNteSiN-50" style="edgeStyle=orthogonalEdgeStyle;rounded=0;orthogonalLoop=1;jettySize=auto;html=1;entryX=0.5;entryY=1;entryDx=0;entryDy=0;strokeColor=#67AB9F;jumpStyle=arc;" edge="1" parent="1" source="pYHRvO8yDs57ZYNteSiN-49" target="pYHRvO8yDs57ZYNteSiN-1">
          <mxGeometry relative="1" as="geometry">
            <Array as="points">
              <mxPoint x="730" y="440" />
              <mxPoint x="150" y="440" />
            </Array>
          </mxGeometry>
        </mxCell>
        <mxCell id="pYHRvO8yDs57ZYNteSiN-53" style="edgeStyle=orthogonalEdgeStyle;rounded=0;orthogonalLoop=1;jettySize=auto;html=1;entryX=1;entryY=0.5;entryDx=0;entryDy=0;strokeColor=#67AB9F;jumpStyle=arc;" edge="1" parent="1" source="pYHRvO8yDs57ZYNteSiN-49" target="pYHRvO8yDs57ZYNteSiN-18">
          <mxGeometry relative="1" as="geometry">
            <Array as="points">
              <mxPoint x="670" y="290" />
              <mxPoint x="670" y="390" />
            </Array>
          </mxGeometry>
        </mxCell>
        <mxCell id="pYHRvO8yDs57ZYNteSiN-54" style="edgeStyle=orthogonalEdgeStyle;rounded=0;orthogonalLoop=1;jettySize=auto;html=1;strokeColor=#67AB9F;jumpStyle=arc;" edge="1" parent="1" source="pYHRvO8yDs57ZYNteSiN-49">
          <mxGeometry relative="1" as="geometry">
            <mxPoint x="530" y="210" as="targetPoint" />
            <Array as="points">
              <mxPoint x="670" y="290" />
              <mxPoint x="670" y="210" />
              <mxPoint x="530" y="210" />
            </Array>
          </mxGeometry>
        </mxCell>
        <mxCell id="pYHRvO8yDs57ZYNteSiN-62" value="" style="group" vertex="1" connectable="0" parent="1">
          <mxGeometry x="30" y="460" width="328" height="70" as="geometry" />
        </mxCell>
        <mxCell id="pYHRvO8yDs57ZYNteSiN-57" value="Обмен данныеми между микрофронтендами:&lt;div&gt;&amp;nbsp; &amp;nbsp; &amp;nbsp; &amp;nbsp; &amp;nbsp; &amp;nbsp; &amp;nbsp; &amp;nbsp; &amp;nbsp; 1. Глобальное состояние (React Context API)&lt;/div&gt;&lt;div&gt;&lt;span style=&quot;background-color: initial;&quot;&gt;&amp;nbsp; &amp;nbsp; &amp;nbsp; &amp;nbsp; &amp;nbsp; &amp;nbsp; &amp;nbsp; &amp;nbsp; &amp;nbsp;&amp;nbsp;&lt;/span&gt;2. PubSub (EventTarget API)&lt;/div&gt;&lt;div&gt;&lt;span style=&quot;background-color: initial;&quot;&gt;&amp;nbsp; &amp;nbsp; &amp;nbsp; &amp;nbsp; &amp;nbsp; &amp;nbsp; &amp;nbsp; &amp;nbsp; &amp;nbsp;&amp;nbsp;&lt;/span&gt;3. Localstorage API&lt;/div&gt;" style="text;html=1;align=left;verticalAlign=middle;resizable=0;points=[];autosize=1;strokeColor=none;fillColor=none;" vertex="1" parent="pYHRvO8yDs57ZYNteSiN-62">
          <mxGeometry width="328" height="70" as="geometry" />
        </mxCell>
        <mxCell id="pYHRvO8yDs57ZYNteSiN-59" value="" style="endArrow=classic;html=1;rounded=0;endFill=1;strokeColor=#3333FF;" edge="1" parent="pYHRvO8yDs57ZYNteSiN-62">
          <mxGeometry width="50" height="50" relative="1" as="geometry">
            <mxPoint x="10" y="28" as="sourcePoint" />
            <mxPoint x="50" y="28" as="targetPoint" />
          </mxGeometry>
        </mxCell>
        <mxCell id="pYHRvO8yDs57ZYNteSiN-60" value="" style="endArrow=classic;html=1;rounded=0;endFill=1;strokeColor=#FF9933;" edge="1" parent="pYHRvO8yDs57ZYNteSiN-62">
          <mxGeometry width="50" height="50" relative="1" as="geometry">
            <mxPoint x="10" y="43" as="sourcePoint" />
            <mxPoint x="50" y="43" as="targetPoint" />
          </mxGeometry>
        </mxCell>
        <mxCell id="pYHRvO8yDs57ZYNteSiN-61" value="" style="endArrow=classic;html=1;rounded=0;endFill=1;strokeColor=#FF33FF;" edge="1" parent="pYHRvO8yDs57ZYNteSiN-62">
          <mxGeometry width="50" height="50" relative="1" as="geometry">
            <mxPoint x="10" y="57" as="sourcePoint" />
            <mxPoint x="50" y="57" as="targetPoint" />
          </mxGeometry>
        </mxCell>
        <mxCell id="pYHRvO8yDs57ZYNteSiN-26" style="edgeStyle=orthogonalEdgeStyle;rounded=0;orthogonalLoop=1;jettySize=auto;html=1;entryX=1;entryY=0.25;entryDx=0;entryDy=0;startArrow=classic;startFill=1;strokeColor=#3333FF;jumpStyle=arc;" edge="1" parent="1" source="pYHRvO8yDs57ZYNteSiN-13" target="pYHRvO8yDs57ZYNteSiN-22">
          <mxGeometry relative="1" as="geometry">
            <Array as="points">
              <mxPoint x="570" y="140" />
              <mxPoint x="370" y="140" />
              <mxPoint x="370" y="260" />
            </Array>
          </mxGeometry>
        </mxCell>
      </root>
    </mxGraphModel>
  </diagram>
</mxfile>
